<?xml version="1.0" encoding="utf-8"?>
<!-- Generator: Adobe Illustrator 23.1.1, SVG Export Plug-In . SVG Version: 6.00 Build 0)  -->
<svg version="1.1" id="Layer_1" xmlns="http://www.w3.org/2000/svg" xmlns:xlink="http://www.w3.org/1999/xlink" x="0px" y="0px"
	 viewBox="0 0 110.55 28.35" style="enable-background:new 0 0 110.55 28.35;" xml:space="preserve">
<style type="text/css">
	.st0{display:none;}
	.st1{display:inline;}
</style>
<g>
	<path d="M106.36,20.95h-2.56c-0.39,0-0.71,0.32-0.71,0.71v2.56c0,0.39,0.32,0.71,0.71,0.71h2.56c0.39,0,0.71-0.32,0.71-0.71v-2.56
		C107.06,21.27,106.75,20.95,106.36,20.95z"/>
	<path d="M10.84,14.74c-2.13-0.69-2.82-0.9-2.82-1.86c0-0.69,0.54-1.44,1.53-1.44c0.35,0,1.05,0.09,1.42,0.9
		c0.14,0.32,0.44,0.54,0.79,0.54h2.65c0.36,0,0.62-0.33,0.56-0.68c-0.48-2.86-3.05-4.42-5.36-4.42c-2.67,0-5.58,1.92-5.58,5.16
		c0,2.73,1.83,4.14,3.72,4.77c2.85,0.96,3.75,1.26,3.75,2.49c0,0.69-0.51,1.68-1.8,1.68c-1.29,0-1.79-0.84-2.04-1.57
		c-0.11-0.34-0.44-0.56-0.8-0.56H4.06c-0.34,0-0.61,0.3-0.56,0.63c0.12,0.9,0.37,1.95,1.19,2.97c1.29,1.62,3.33,2.19,4.98,2.19
		c2.85,0,5.82-2.07,5.82-5.82C15.49,16.36,12.91,15.37,10.84,14.74z"/>
	<path d="M65.09,16.51l4.78-6.82c0.4-0.56-0.01-1.34-0.7-1.34h-2.2c-0.47,0-0.91,0.23-1.17,0.62l-4.89,7.21h-0.06V3.65
		c0-0.47-0.38-0.85-0.85-0.85h-2.29c-0.47,0-0.85,0.38-0.85,0.85v20.5c0,0.47,0.38,0.85,0.85,0.85h2.29c0.47,0,0.85-0.38,0.85-0.85
		V17.2h0.06l5.22,7.21c0.27,0.37,0.69,0.59,1.15,0.59h2.59c0.7,0,1.1-0.81,0.68-1.37L65.09,16.51z"/>
	<path d="M81.48,7.78C81.47,7.78,81.47,7.78,81.48,7.78L81.48,7.78c-0.01,0-0.01,0-0.01,0c-4.79,0-8.68,3.97-8.68,8.88
		c0,4.9,3.89,8.88,8.68,8.88c0,0,0,0,0.01,0v0c0,0,0,0,0,0c3.26,0,6.09-1.83,7.58-4.55c0.37-0.67,0.01-1.24-0.76-1.24l-2.16,0
		c-0.38,0-0.76,0.14-1.01,0.43c-0.91,1.02-2.21,1.66-3.65,1.66c0,0,0,0-0.01,0v0c0,0,0,0-0.01,0c-2.13,0-3.96-1.41-4.67-3.38h4.68v0
		h4.67h3.1c0.44,0,0.8-0.33,0.85-0.76c0.04-0.34,0.06-0.68,0.06-1.04c0-0.48-0.04-0.95-0.11-1.41C89.39,11.01,85.8,7.78,81.48,7.78z
		 M81.47,15.25L81.47,15.25l-4.8,0c0.59-2.18,2.52-3.77,4.79-3.77c0,0,0,0,0.01,0v0c0,0,0,0,0.01,0c2.27,0,4.2,1.59,4.79,3.77H81.47
		z"/>
	<path d="M99.84,8.33c-1.19,0-2.24,0.57-2.92,1.45v-0.6c0-0.47-0.38-0.85-0.85-0.85H93.8c-0.47,0-0.85,0.38-0.85,0.85v14.97
		c0,0.47,0.38,0.85,0.85,0.85h2.28c0.47,0,0.85-0.38,0.85-0.85v-9.38c0.01-1.42,1.15-2.56,2.57-2.56h0.35
		c0.39,0,0.71-0.32,0.71-0.71V9.04C100.55,8.65,100.24,8.33,99.84,8.33z"/>
	<path d="M53.44,15.25c-0.66-4.23-4.24-7.47-8.57-7.47c-4.33,0-7.9,3.24-8.57,7.47h-2.07c-0.66-4.23-4.24-7.47-8.57-7.47
		c-4.33,0-7.9,3.24-8.57,7.47c-0.07,0.46-0.12,0.93-0.12,1.41c0,0.35,0.02,0.7,0.06,1.04c0.05,0.43,0.41,0.76,0.85,0.76h12.49
		c-0.72,1.97-2.54,3.38-4.71,3.38c-1.48,0-2.79-0.65-3.72-1.69c-0.22-0.25-0.52-0.4-0.85-0.4h-2.24c-0.64,0-1.07,0.68-0.76,1.24
		c1.48,2.71,4.32,4.55,7.57,4.55v0c4.19,0,7.67-3.04,8.49-7.08h2.23c0.82,4.04,4.3,7.08,8.49,7.08v0c3.26,0,6.09-1.84,7.57-4.55
		c0.31-0.56-0.12-1.24-0.76-1.24h-2.24c-0.33,0-0.63,0.16-0.85,0.4c-0.92,1.03-2.24,1.69-3.72,1.69c-2.17,0-3.99-1.41-4.71-3.38
		h12.49c0.44,0,0.8-0.33,0.85-0.76c0.04-0.34,0.06-0.69,0.06-1.04C53.56,16.18,53.51,15.71,53.44,15.25z M20.82,15.25
		c0.6-2.17,2.54-3.77,4.85-3.77s4.25,1.6,4.85,3.77H20.82z M40.02,15.25c0.6-2.17,2.54-3.77,4.85-3.77s4.25,1.6,4.85,3.77H40.02z"/>
</g>
<g class="st0">
	<path class="st1" d="M331.92,20.26v3.7c-4.33,0-7.9-3.24-8.57-7.47h3.71C327.67,18.66,329.61,20.26,331.92,20.26z"/>
	<path class="st1" d="M317.57,16.49h3.71c-0.66,4.23-4.24,7.47-8.57,7.47v-3.7C315.04,20.26,316.97,18.66,317.57,16.49z"/>
</g>
</svg>
