<?xml version="1.0" encoding="utf-8"?>
<!-- Generator: Adobe Illustrator 23.1.1, SVG Export Plug-In . SVG Version: 6.00 Build 0)  -->
<svg version="1.1" id="Layer_1" xmlns="http://www.w3.org/2000/svg" xmlns:xlink="http://www.w3.org/1999/xlink" x="0px" y="0px"
	 viewBox="0 0 51.02 28.35" style="enable-background:new 0 0 51.02 28.35;" xml:space="preserve">
<style type="text/css">
	.st0{display:none;}
	.st1{display:inline;}
</style>
<g>
	<path d="M46.73,20.95h-2.56c-0.39,0-0.71,0.32-0.71,0.71v2.56c0,0.39,0.32,0.71,0.71,0.71h2.56c0.39,0,0.71-0.32,0.71-0.71v-2.56
		C47.44,21.27,47.12,20.95,46.73,20.95z"/>
	<path d="M40.04,15.25c-0.66-4.23-4.24-7.47-8.57-7.47c-4.33,0-7.9,3.24-8.57,7.47h-2.07c-0.66-4.23-4.24-7.47-8.57-7.47
		c-4.33,0-7.9,3.24-8.57,7.47c-0.07,0.46-0.12,0.93-0.12,1.41c0,0.35,0.02,0.7,0.06,1.04c0.05,0.43,0.41,0.76,0.85,0.76h12.49
		c-0.72,1.97-2.54,3.38-4.71,3.38c-1.48,0-2.79-0.65-3.72-1.69c-0.22-0.25-0.52-0.4-0.85-0.4H5.46c-0.64,0-1.07,0.68-0.76,1.24
		c1.48,2.71,4.32,4.55,7.57,4.55v0c4.19,0,7.67-3.04,8.49-7.08h2.23c0.82,4.04,4.3,7.08,8.49,7.08v0c3.26,0,6.09-1.84,7.57-4.55
		c0.31-0.56-0.12-1.24-0.76-1.24h-2.24c-0.33,0-0.63,0.16-0.85,0.4c-0.92,1.03-2.24,1.69-3.72,1.69c-2.17,0-3.99-1.41-4.71-3.38
		h12.49c0.44,0,0.8-0.33,0.85-0.76c0.04-0.34,0.06-0.69,0.06-1.04C40.16,16.18,40.11,15.71,40.04,15.25z M7.42,15.25
		c0.6-2.17,2.54-3.77,4.85-3.77s4.25,1.6,4.85,3.77H7.42z M26.62,15.25c0.6-2.17,2.54-3.77,4.85-3.77s4.25,1.6,4.85,3.77H26.62z"/>
</g>
<g class="st0">
	<path class="st1" d="M302.16,20.26v3.7c-4.33,0-7.9-3.24-8.57-7.47h3.71C297.91,18.66,299.84,20.26,302.16,20.26z"/>
	<path class="st1" d="M287.81,16.49h3.71c-0.66,4.23-4.24,7.47-8.57,7.47v-3.7C285.27,20.26,287.21,18.66,287.81,16.49z"/>
</g>
</svg>
